<mxfile host="app.diagrams.net" modified="2023-06-20T08:55:48.725Z" agent="Mozilla/5.0 (Macintosh; Intel Mac OS X 10.15; rv:109.0) Gecko/20100101 Firefox/113.0" version="21.5.0" etag="54yjmabKGHOtyU5x4PPU">
  <diagram id="9c28e6cf-dd68-194a-c9a1-9ff6bf67635e" name="without_complete_transaction">
    <mxGraphModel dx="2049" dy="1227" grid="1" gridSize="10" guides="1" tooltips="1" connect="1" arrows="1" fold="1" page="1" pageScale="1" pageWidth="827" pageHeight="1169" math="0" shadow="0">
      <root>
        <mxCell id="0" />
        <mxCell id="1" parent="0" />
        <mxCell id="iU4s4uHMQ0nt0ZGbNc_L-33" style="edgeStyle=orthogonalEdgeStyle;rounded=0;orthogonalLoop=1;jettySize=auto;html=1;endArrow=open;endFill=0;" edge="1" parent="1" source="iU4s4uHMQ0nt0ZGbNc_L-26" target="iU4s4uHMQ0nt0ZGbNc_L-30">
          <mxGeometry relative="1" as="geometry" />
        </mxCell>
        <mxCell id="iU4s4uHMQ0nt0ZGbNc_L-26" value="" style="ellipse;html=1;shape=startState;fillColor=#000000;strokeColor=#000000;" vertex="1" parent="1">
          <mxGeometry x="400" y="70" width="30" height="30" as="geometry" />
        </mxCell>
        <mxCell id="iU4s4uHMQ0nt0ZGbNc_L-37" style="edgeStyle=orthogonalEdgeStyle;rounded=0;orthogonalLoop=1;jettySize=auto;html=1;exitX=0.25;exitY=0.5;exitDx=0;exitDy=0;exitPerimeter=0;entryX=0.5;entryY=0;entryDx=0;entryDy=0;endArrow=open;endFill=0;" edge="1" parent="1" source="iU4s4uHMQ0nt0ZGbNc_L-30" target="iU4s4uHMQ0nt0ZGbNc_L-35">
          <mxGeometry relative="1" as="geometry" />
        </mxCell>
        <mxCell id="iU4s4uHMQ0nt0ZGbNc_L-39" style="edgeStyle=orthogonalEdgeStyle;rounded=0;orthogonalLoop=1;jettySize=auto;html=1;exitX=0.75;exitY=0.5;exitDx=0;exitDy=0;exitPerimeter=0;entryX=0.5;entryY=0;entryDx=0;entryDy=0;endArrow=open;endFill=0;" edge="1" parent="1" source="iU4s4uHMQ0nt0ZGbNc_L-30" target="iU4s4uHMQ0nt0ZGbNc_L-38">
          <mxGeometry relative="1" as="geometry" />
        </mxCell>
        <mxCell id="iU4s4uHMQ0nt0ZGbNc_L-30" value="" style="shape=line;html=1;strokeWidth=6;strokeColor=#000000;" vertex="1" parent="1">
          <mxGeometry x="315" y="200" width="200" height="10" as="geometry" />
        </mxCell>
        <mxCell id="iU4s4uHMQ0nt0ZGbNc_L-42" style="edgeStyle=orthogonalEdgeStyle;rounded=0;orthogonalLoop=1;jettySize=auto;html=1;entryX=0.5;entryY=0;entryDx=0;entryDy=0;endArrow=open;endFill=0;" edge="1" parent="1" source="iU4s4uHMQ0nt0ZGbNc_L-35">
          <mxGeometry relative="1" as="geometry">
            <mxPoint x="350" y="390" as="targetPoint" />
          </mxGeometry>
        </mxCell>
        <mxCell id="iU4s4uHMQ0nt0ZGbNc_L-35" value="POST /flight" style="rounded=1;whiteSpace=wrap;html=1;arcSize=40;" vertex="1" parent="1">
          <mxGeometry x="290" y="260" width="120" height="40" as="geometry" />
        </mxCell>
        <mxCell id="iU4s4uHMQ0nt0ZGbNc_L-38" value="POST /hotel" style="rounded=1;whiteSpace=wrap;html=1;arcSize=40;" vertex="1" parent="1">
          <mxGeometry x="430" y="260" width="120" height="40" as="geometry" />
        </mxCell>
        <mxCell id="iU4s4uHMQ0nt0ZGbNc_L-43" style="edgeStyle=orthogonalEdgeStyle;rounded=0;orthogonalLoop=1;jettySize=auto;html=1;endArrow=open;endFill=0;exitX=0.5;exitY=1;exitDx=0;exitDy=0;" edge="1" parent="1" target="iU4s4uHMQ0nt0ZGbNc_L-56" source="iU4s4uHMQ0nt0ZGbNc_L-38">
          <mxGeometry relative="1" as="geometry">
            <mxPoint x="550" y="350" as="sourcePoint" />
            <mxPoint x="490.0000000000002" y="390" as="targetPoint" />
          </mxGeometry>
        </mxCell>
        <mxCell id="iU4s4uHMQ0nt0ZGbNc_L-51" value="no timeout" style="edgeStyle=orthogonalEdgeStyle;rounded=0;orthogonalLoop=1;jettySize=auto;html=1;labelBackgroundColor=none;endArrow=open;endFill=0;" edge="1" parent="1" source="iU4s4uHMQ0nt0ZGbNc_L-48" target="iU4s4uHMQ0nt0ZGbNc_L-58">
          <mxGeometry x="-0.8465" y="-30" relative="1" as="geometry">
            <mxPoint x="350.0000000000001" y="560" as="targetPoint" />
            <mxPoint as="offset" />
          </mxGeometry>
        </mxCell>
        <mxCell id="iU4s4uHMQ0nt0ZGbNc_L-48" value="" style="rhombus;whiteSpace=wrap;html=1;" vertex="1" parent="1">
          <mxGeometry x="320" y="390" width="60" height="40" as="geometry" />
        </mxCell>
        <mxCell id="iU4s4uHMQ0nt0ZGbNc_L-50" value="timeout" style="edgeStyle=orthogonalEdgeStyle;html=1;align=left;verticalAlign=top;endArrow=open;endSize=6;rounded=0;labelBackgroundColor=none;exitX=0;exitY=0.5;exitDx=0;exitDy=0;endFill=0;entryX=0.75;entryY=0.5;entryDx=0;entryDy=0;entryPerimeter=0;" edge="1" source="iU4s4uHMQ0nt0ZGbNc_L-48" parent="1" target="iU4s4uHMQ0nt0ZGbNc_L-65">
          <mxGeometry x="-0.6953" y="-20" relative="1" as="geometry">
            <mxPoint x="310" y="190" as="targetPoint" />
            <mxPoint x="310" y="460" as="sourcePoint" />
            <Array as="points">
              <mxPoint x="250" y="410" />
            </Array>
            <mxPoint as="offset" />
          </mxGeometry>
        </mxCell>
        <mxCell id="iU4s4uHMQ0nt0ZGbNc_L-55" value="no timeout" style="edgeStyle=orthogonalEdgeStyle;rounded=0;orthogonalLoop=1;jettySize=auto;html=1;labelBackgroundColor=none;endArrow=open;endFill=0;" edge="1" parent="1" source="iU4s4uHMQ0nt0ZGbNc_L-56" target="iU4s4uHMQ0nt0ZGbNc_L-72">
          <mxGeometry x="-0.8465" y="-30" relative="1" as="geometry">
            <mxPoint x="490.0100000000001" y="560" as="targetPoint" />
            <mxPoint as="offset" />
          </mxGeometry>
        </mxCell>
        <mxCell id="iU4s4uHMQ0nt0ZGbNc_L-56" value="" style="rhombus;whiteSpace=wrap;html=1;" vertex="1" parent="1">
          <mxGeometry x="460.01" y="390" width="60" height="40" as="geometry" />
        </mxCell>
        <mxCell id="iU4s4uHMQ0nt0ZGbNc_L-57" value="timeout" style="edgeStyle=orthogonalEdgeStyle;html=1;align=left;verticalAlign=top;endArrow=open;endSize=6;rounded=0;entryX=0.25;entryY=0.5;entryDx=0;entryDy=0;labelBackgroundColor=none;exitX=1;exitY=0.5;exitDx=0;exitDy=0;endFill=0;entryPerimeter=0;" edge="1" parent="1" source="iU4s4uHMQ0nt0ZGbNc_L-56" target="iU4s4uHMQ0nt0ZGbNc_L-79">
          <mxGeometry x="-1" y="20" relative="1" as="geometry">
            <mxPoint x="540.01" y="85" as="targetPoint" />
            <mxPoint x="450.01" y="460" as="sourcePoint" />
            <Array as="points">
              <mxPoint x="590" y="410" />
            </Array>
            <mxPoint as="offset" />
          </mxGeometry>
        </mxCell>
        <mxCell id="iU4s4uHMQ0nt0ZGbNc_L-61" style="edgeStyle=orthogonalEdgeStyle;rounded=0;orthogonalLoop=1;jettySize=auto;html=1;exitX=0.25;exitY=0.5;exitDx=0;exitDy=0;exitPerimeter=0;entryX=0.5;entryY=0;entryDx=0;entryDy=0;endArrow=open;endFill=0;" edge="1" parent="1" source="iU4s4uHMQ0nt0ZGbNc_L-58" target="iU4s4uHMQ0nt0ZGbNc_L-60">
          <mxGeometry relative="1" as="geometry" />
        </mxCell>
        <mxCell id="iU4s4uHMQ0nt0ZGbNc_L-58" value="" style="shape=line;html=1;strokeWidth=6;strokeColor=#000000;" vertex="1" parent="1">
          <mxGeometry x="170" y="580" width="200" height="10" as="geometry" />
        </mxCell>
        <mxCell id="iU4s4uHMQ0nt0ZGbNc_L-64" style="edgeStyle=orthogonalEdgeStyle;rounded=0;orthogonalLoop=1;jettySize=auto;html=1;endArrow=open;endFill=0;targetPerimeterSpacing=0;entryX=0.25;entryY=0.5;entryDx=0;entryDy=0;entryPerimeter=0;" edge="1" parent="1" source="iU4s4uHMQ0nt0ZGbNc_L-60" target="iU4s4uHMQ0nt0ZGbNc_L-65">
          <mxGeometry relative="1" as="geometry">
            <mxPoint x="150" y="140" as="targetPoint" />
            <Array as="points">
              <mxPoint x="120" y="665" />
              <mxPoint x="120" y="390" />
              <mxPoint x="150" y="390" />
            </Array>
          </mxGeometry>
        </mxCell>
        <mxCell id="iU4s4uHMQ0nt0ZGbNc_L-60" value="DELETE /flight/{id}" style="rounded=1;whiteSpace=wrap;html=1;arcSize=40;" vertex="1" parent="1">
          <mxGeometry x="140" y="645" width="120" height="40" as="geometry" />
        </mxCell>
        <mxCell id="iU4s4uHMQ0nt0ZGbNc_L-62" style="edgeStyle=orthogonalEdgeStyle;rounded=0;orthogonalLoop=1;jettySize=auto;html=1;exitX=0.75;exitY=0.5;exitDx=0;exitDy=0;exitPerimeter=0;entryX=0.5;entryY=0;entryDx=0;entryDy=0;endArrow=open;endFill=0;" edge="1" parent="1" target="iU4s4uHMQ0nt0ZGbNc_L-63" source="iU4s4uHMQ0nt0ZGbNc_L-58">
          <mxGeometry relative="1" as="geometry">
            <mxPoint x="380" y="580" as="sourcePoint" />
          </mxGeometry>
        </mxCell>
        <mxCell id="iU4s4uHMQ0nt0ZGbNc_L-68" style="edgeStyle=orthogonalEdgeStyle;rounded=0;orthogonalLoop=1;jettySize=auto;html=1;entryX=0.25;entryY=0.5;entryDx=0;entryDy=0;entryPerimeter=0;endArrow=open;endFill=0;" edge="1" parent="1" source="iU4s4uHMQ0nt0ZGbNc_L-63" target="iU4s4uHMQ0nt0ZGbNc_L-67">
          <mxGeometry relative="1" as="geometry" />
        </mxCell>
        <mxCell id="iU4s4uHMQ0nt0ZGbNc_L-63" value="PUT /flight/{id}" style="rounded=1;whiteSpace=wrap;html=1;arcSize=40;" vertex="1" parent="1">
          <mxGeometry x="280" y="645" width="120" height="40" as="geometry" />
        </mxCell>
        <mxCell id="iU4s4uHMQ0nt0ZGbNc_L-66" style="edgeStyle=orthogonalEdgeStyle;rounded=0;orthogonalLoop=1;jettySize=auto;html=1;entryX=0;entryY=0.5;entryDx=0;entryDy=0;endArrow=open;endFill=0;" edge="1" parent="1" source="iU4s4uHMQ0nt0ZGbNc_L-65" target="iU4s4uHMQ0nt0ZGbNc_L-26">
          <mxGeometry relative="1" as="geometry">
            <Array as="points">
              <mxPoint x="200" y="85" />
            </Array>
          </mxGeometry>
        </mxCell>
        <mxCell id="iU4s4uHMQ0nt0ZGbNc_L-65" value="" style="shape=line;html=1;strokeWidth=6;strokeColor=#000000;" vertex="1" parent="1">
          <mxGeometry x="100" y="130" width="200" height="10" as="geometry" />
        </mxCell>
        <mxCell id="iU4s4uHMQ0nt0ZGbNc_L-70" style="edgeStyle=orthogonalEdgeStyle;rounded=0;orthogonalLoop=1;jettySize=auto;html=1;entryX=0.5;entryY=0;entryDx=0;entryDy=0;endArrow=open;endFill=0;" edge="1" parent="1" source="iU4s4uHMQ0nt0ZGbNc_L-67" target="iU4s4uHMQ0nt0ZGbNc_L-69">
          <mxGeometry relative="1" as="geometry" />
        </mxCell>
        <mxCell id="iU4s4uHMQ0nt0ZGbNc_L-67" value="" style="shape=line;html=1;strokeWidth=6;strokeColor=#000000;" vertex="1" parent="1">
          <mxGeometry x="320" y="730" width="200" height="10" as="geometry" />
        </mxCell>
        <mxCell id="iU4s4uHMQ0nt0ZGbNc_L-69" value="" style="ellipse;html=1;shape=endState;" vertex="1" parent="1">
          <mxGeometry x="405" y="800" width="30" height="30" as="geometry" />
        </mxCell>
        <mxCell id="iU4s4uHMQ0nt0ZGbNc_L-71" style="edgeStyle=orthogonalEdgeStyle;rounded=0;orthogonalLoop=1;jettySize=auto;html=1;exitX=0.25;exitY=0.5;exitDx=0;exitDy=0;exitPerimeter=0;entryX=0.5;entryY=0;entryDx=0;entryDy=0;endArrow=open;endFill=0;" edge="1" parent="1" source="iU4s4uHMQ0nt0ZGbNc_L-72" target="iU4s4uHMQ0nt0ZGbNc_L-73">
          <mxGeometry relative="1" as="geometry" />
        </mxCell>
        <mxCell id="iU4s4uHMQ0nt0ZGbNc_L-72" value="" style="shape=line;html=1;strokeWidth=6;strokeColor=#000000;" vertex="1" parent="1">
          <mxGeometry x="470.01" y="580" width="200" height="10" as="geometry" />
        </mxCell>
        <mxCell id="iU4s4uHMQ0nt0ZGbNc_L-77" style="edgeStyle=orthogonalEdgeStyle;rounded=0;orthogonalLoop=1;jettySize=auto;html=1;entryX=0.75;entryY=0.5;entryDx=0;entryDy=0;entryPerimeter=0;endArrow=open;endFill=0;" edge="1" parent="1" source="iU4s4uHMQ0nt0ZGbNc_L-73" target="iU4s4uHMQ0nt0ZGbNc_L-67">
          <mxGeometry relative="1" as="geometry" />
        </mxCell>
        <mxCell id="iU4s4uHMQ0nt0ZGbNc_L-73" value="PUT /hotel/{id}" style="rounded=1;whiteSpace=wrap;html=1;arcSize=40;" vertex="1" parent="1">
          <mxGeometry x="440" y="645" width="120" height="40" as="geometry" />
        </mxCell>
        <mxCell id="iU4s4uHMQ0nt0ZGbNc_L-74" style="edgeStyle=orthogonalEdgeStyle;rounded=0;orthogonalLoop=1;jettySize=auto;html=1;exitX=0.75;exitY=0.5;exitDx=0;exitDy=0;exitPerimeter=0;entryX=0.5;entryY=0;entryDx=0;entryDy=0;endArrow=open;endFill=0;" edge="1" parent="1" source="iU4s4uHMQ0nt0ZGbNc_L-72" target="iU4s4uHMQ0nt0ZGbNc_L-76">
          <mxGeometry relative="1" as="geometry">
            <mxPoint x="680" y="580" as="sourcePoint" />
          </mxGeometry>
        </mxCell>
        <mxCell id="iU4s4uHMQ0nt0ZGbNc_L-75" style="edgeStyle=orthogonalEdgeStyle;rounded=0;orthogonalLoop=1;jettySize=auto;html=1;entryX=0.75;entryY=0.5;entryDx=0;entryDy=0;entryPerimeter=0;endArrow=open;endFill=0;" edge="1" parent="1" source="iU4s4uHMQ0nt0ZGbNc_L-76" target="iU4s4uHMQ0nt0ZGbNc_L-79">
          <mxGeometry relative="1" as="geometry">
            <mxPoint x="665" y="735" as="targetPoint" />
            <Array as="points">
              <mxPoint x="720" y="665" />
              <mxPoint x="720" y="393" />
              <mxPoint x="690" y="393" />
            </Array>
          </mxGeometry>
        </mxCell>
        <mxCell id="iU4s4uHMQ0nt0ZGbNc_L-76" value="DELETE /hotel/{id}" style="rounded=1;whiteSpace=wrap;html=1;arcSize=40;" vertex="1" parent="1">
          <mxGeometry x="580" y="645" width="120" height="40" as="geometry" />
        </mxCell>
        <mxCell id="iU4s4uHMQ0nt0ZGbNc_L-78" style="edgeStyle=orthogonalEdgeStyle;rounded=0;orthogonalLoop=1;jettySize=auto;html=1;entryX=1;entryY=0.5;entryDx=0;entryDy=0;endArrow=open;endFill=0;" edge="1" parent="1" source="iU4s4uHMQ0nt0ZGbNc_L-79" target="iU4s4uHMQ0nt0ZGbNc_L-26">
          <mxGeometry relative="1" as="geometry">
            <mxPoint x="830" y="85" as="targetPoint" />
            <Array as="points">
              <mxPoint x="640" y="85" />
            </Array>
            <mxPoint x="640" y="110" as="sourcePoint" />
          </mxGeometry>
        </mxCell>
        <mxCell id="iU4s4uHMQ0nt0ZGbNc_L-79" value="" style="shape=line;html=1;strokeWidth=6;strokeColor=#000000;" vertex="1" parent="1">
          <mxGeometry x="540" y="130" width="200" height="10" as="geometry" />
        </mxCell>
      </root>
    </mxGraphModel>
  </diagram>
</mxfile>
